<?xml version="1.0" encoding="UTF-8"?>
<svg width="12px" height="15px" viewBox="0 0 12 15" version="1.1" xmlns="http://www.w3.org/2000/svg" xmlns:xlink="http://www.w3.org/1999/xlink">
    <!-- Generator: Sketch 58 (84663) - https://sketch.com -->
    <title>Combined-Shape</title>
    <desc>Created with Sketch.</desc>
    <g id="Page-1" stroke="none" stroke-width="1" fill="none" fill-rule="evenodd">
        <g id="Artboard" transform="translate(-413.000000, -11.000000)" fill="#595858" fill-rule="nonzero">
            <g id="search-icon" transform="translate(411.000000, 9.000000)">
                <path d="M8.50000008,2.25581393 C11.0819303,2.25581393 13.1750001,4.3173865 13.1750001,6.86046509 C13.1750001,9.02156979 11.6634748,10.8349512 9.62490708,11.3309404 C9.62893183,11.3611167 9.63070833,11.3923051 9.63070833,11.4239024 L9.63070833,16.8657628 C9.63070833,17.3281408 9.25015058,17.7029721 8.78070833,17.7029721 C8.31126608,17.7029721 7.93070833,17.3281408 7.93070833,16.8657628 L7.93054258,11.4312996 C5.61719958,11.1545988 3.82500008,9.2136778 3.82500008,6.86046509 C3.82500008,4.3173865 5.91806983,2.25581393 8.50000008,2.25581393 Z M8.56275133,3.61557667 C6.74327108,3.61557667 5.26828733,5.0683627 5.26828733,6.86046509 C5.26828733,8.65256749 6.74327108,10.1053535 8.56275133,10.1053535 C10.3822316,10.1053535 11.8572153,8.65256749 11.8572153,6.86046509 C11.8572153,5.0683627 10.3822316,3.61557667 8.56275133,3.61557667 Z" id="Combined-Shape" transform="translate(8.500000, 9.979393) rotate(-37.000000) translate(-8.500000, -9.979393) "></path>
            </g>
        </g>
    </g>
</svg>